# xmcd
#
# Track frame offsets: 
#        150
#        11683
#        25792
#        43023
#        64002
#        78711
#        93478
#        121199
#        133457
#        158318
#        176063
#        192674
#
# Disc length: 2931 seconds
#
# Revision: 0
# Processed by: cddbd v1.5.2PL0 Copyright (c) Steve Scherf et al.
# Submitted via: ExactAudioCopy v0.99pb5
#
DISCID=9f0b710c
DTITLE=Wilko Johnson - The Best Of Wilko Johnson Vol 1
DYEAR=2010
DGENRE=R&B
TTITLE0=Some Kind Of Hero
TTITLE1=Back In The Night
TTITLE2=Cairo Blues
TTITLE3=Paradise
TTITLE4=Keep On Loving You
TTITLE5=Come Back And Love Me
TTITLE6=When I'm Gone
TTITLE7=Ice On The Motorway
TTITLE8=She's Good Like That
TTITLE9=The Beautiful Madrilena
TTITLE10=Sneaking Suspicion
TTITLE11=Underneath Orion
EXTD=
EXTT0=
EXTT1=
EXTT2=
EXTT3=
EXTT4=
EXTT5=
EXTT6=
EXTT7=
EXTT8=
EXTT9=
EXTT10=
EXTT11=
PLAYORDER=
